<svg width="255" height="293" viewBox="0 0 255 293" fill="none" xmlns="http://www.w3.org/2000/svg">
<g filter="url(#filter0_d_323_1453)">
<path d="M116.425 56.6293L102.429 171.856L56.8815 158.407L116.425 56.6293Z" fill="url(#paint0_linear_323_1453)"/>
<path d="M116.425 56.6293L149.866 173.82L102.429 171.856L116.425 56.6293Z" fill="url(#paint1_linear_323_1453)"/>
<path d="M116.425 56.6293L193.635 159.841L149.866 173.82L116.425 56.6293Z" fill="url(#paint2_linear_323_1453)"/>
<path d="M193.629 159.843L149.732 230.894L149.864 173.821L193.629 159.843Z" fill="url(#paint3_linear_323_1453)"/>
<path d="M149.727 230.893L70.2318 203.294L102.43 171.857L149.727 230.893Z" fill="url(#paint4_linear_323_1453)"/>
<path d="M149.73 230.895L102.433 171.857L149.866 173.823L149.73 230.895Z" fill="url(#paint5_linear_323_1453)"/>
<path d="M102.432 171.86L70.3857 203.275L56.8779 158.407L102.432 171.86Z" fill="url(#paint6_linear_323_1453)"/>
</g>
<defs>
<filter id="filter0_d_323_1453" x="0.178905" y="0.928905" width="254.158" height="291.667" filterUnits="userSpaceOnUse" color-interpolation-filters="sRGB">
<feFlood flood-opacity="0" result="BackgroundImageFix"/>
<feColorMatrix in="SourceAlpha" type="matrix" values="0 0 0 0 0 0 0 0 0 0 0 0 0 0 0 0 0 0 127 0" result="hardAlpha"/>
<feOffset dx="2" dy="3"/>
<feGaussianBlur stdDeviation="29.35"/>
<feComposite in2="hardAlpha" operator="out"/>
<feColorMatrix type="matrix" values="0 0 0 0 0 0 0 0 0 0.4 0 0 0 0 1 0 0 0 0.6 0"/>
<feBlend mode="normal" in2="BackgroundImageFix" result="effect1_dropShadow_323_1453"/>
<feBlend mode="normal" in="SourceGraphic" in2="effect1_dropShadow_323_1453" result="shape"/>
</filter>
<linearGradient id="paint0_linear_323_1453" x1="100.751" y1="99.585" x2="77.1066" y2="224.422" gradientUnits="userSpaceOnUse">
<stop offset="0.22078" stop-color="#5094F7"/>
<stop offset="0.813447" stop-color="white"/>
<stop offset="1" stop-color="#F1AC44" stop-opacity="0"/>
</linearGradient>
<linearGradient id="paint1_linear_323_1453" x1="115.422" y1="164.105" x2="114.223" y2="44.7677" gradientUnits="userSpaceOnUse">
<stop stop-color="#5094F7"/>
<stop offset="1" stop-color="white"/>
</linearGradient>
<linearGradient id="paint2_linear_323_1453" x1="159.302" y1="73.7214" x2="149.492" y2="174.933" gradientUnits="userSpaceOnUse">
<stop offset="0.388035" stop-color="#5094F7"/>
<stop offset="1" stop-color="white"/>
</linearGradient>
<linearGradient id="paint3_linear_323_1453" x1="182.856" y1="170.195" x2="111.692" y2="173.732" gradientUnits="userSpaceOnUse">
<stop stop-color="#5094F7"/>
<stop offset="1" stop-color="white"/>
</linearGradient>
<linearGradient id="paint4_linear_323_1453" x1="121.225" y1="216.374" x2="83.9612" y2="145.871" gradientUnits="userSpaceOnUse">
<stop offset="0.140194" stop-color="#5094F7"/>
<stop offset="1" stop-color="white"/>
</linearGradient>
<linearGradient id="paint5_linear_323_1453" x1="99.7519" y1="208.54" x2="194.783" y2="142.428" gradientUnits="userSpaceOnUse">
<stop offset="0.193643" stop-color="#5094F7"/>
<stop offset="0.794347" stop-color="white"/>
</linearGradient>
<linearGradient id="paint6_linear_323_1453" x1="42.3797" y1="177.274" x2="114.288" y2="172.626" gradientUnits="userSpaceOnUse">
<stop offset="0.201632" stop-color="#5094F7"/>
<stop offset="1" stop-color="white"/>
</linearGradient>
</defs>
</svg>
