<svg width="24" height="24" viewBox="0 0 24 24" fill="none" xmlns="http://www.w3.org/2000/svg">
  <path d="M19.27 5.33C17.94 4.71 16.5 4.26 15 4C14.85 4.26 14.68 4.59 14.55 4.85C12.98 4.61 11.41 4.61 9.85 4.85C9.72 4.59 9.54 4.26 9.39 4C7.89 4.26 6.44 4.71 5.11 5.33C2.4 9.29 1.62 13.14 2.01 16.95C3.77 18.24 5.5 19 7.2 19.49C7.5 19.08 7.77 18.65 8 18.19C7.44 17.99 6.92 17.73 6.44 17.43C6.56 17.34 6.68 17.25 6.79 17.15C10.03 18.68 13.48 18.68 16.67 17.15C16.79 17.25 16.91 17.34 17.03 17.43C16.55 17.73 16.03 17.99 15.47 18.19C15.71 18.65 15.97 19.08 16.27 19.49C17.97 19 19.7 18.24 21.46 16.95C21.92 12.58 20.72 8.77 19.27 5.33ZM8.42 14.77C7.42 14.77 6.6 13.88 6.6 12.78C6.6 11.68 7.4 10.79 8.42 10.79C9.44 10.79 10.26 11.68 10.24 12.78C10.24 13.88 9.44 14.77 8.42 14.77ZM15.05 14.77C14.05 14.77 13.23 13.88 13.23 12.78C13.23 11.68 14.03 10.79 15.05 10.79C16.07 10.79 16.89 11.68 16.87 12.78C16.87 13.88 16.07 14.77 15.05 14.77Z" fill="#5865F2"/>
</svg>