<svg width="177" height="183" viewBox="0 0 177 183" fill="none" xmlns="http://www.w3.org/2000/svg">
<path d="M66.9248 154.979L121.246 88.0266L144.584 114.478L66.9248 154.979Z" fill="url(#paint0_linear_323_1466)"/>
<path d="M66.9248 154.979L92.1817 68.0526L121.246 88.0266L66.9248 154.979Z" fill="url(#paint1_linear_323_1466)"/>
<path d="M66.9248 154.979L59.1275 59.5567L92.1817 68.0526L66.9248 154.979Z" fill="url(#paint2_linear_323_1466)"/>
<path d="M59.1317 59.5561L114.811 32.2027L92.1828 68.0512L59.1317 59.5561Z" fill="url(#paint3_linear_323_1466)"/>
<path d="M114.811 32.2051L153.914 80.9677L121.242 88.0242L114.811 32.2051Z" fill="url(#paint4_linear_323_1466)"/>
<path d="M114.814 32.204L121.244 88.0242L92.1841 68.0511L114.814 32.204Z" fill="url(#paint5_linear_323_1466)"/>
<path d="M121.244 88.0216L153.812 80.9194L144.585 114.479L121.244 88.0216Z" fill="url(#paint6_linear_323_1466)"/>
<defs>
<linearGradient id="paint0_linear_323_1466" x1="93.7527" y1="134.15" x2="157.938" y2="64.9636" gradientUnits="userSpaceOnUse">
<stop offset="0.22078" stop-color="#45B132"/>
<stop offset="0.813447" stop-color="white"/>
<stop offset="1" stop-color="#F1AC44" stop-opacity="0"/>
</linearGradient>
<linearGradient id="paint1_linear_323_1466" x1="110.011" y1="87.77" x2="63.6247" y2="163.311" gradientUnits="userSpaceOnUse">
<stop stop-color="#45B132"/>
<stop offset="1" stop-color="white"/>
</linearGradient>
<linearGradient id="paint2_linear_323_1466" x1="46.7053" y1="127.291" x2="92.8569" y2="67.5005" gradientUnits="userSpaceOnUse">
<stop offset="0.388035" stop-color="#45B132"/>
<stop offset="1" stop-color="white"/>
</linearGradient>
<linearGradient id="paint3_linear_323_1466" x1="69.997" y1="57.2997" x2="116.159" y2="83.1858" gradientUnits="userSpaceOnUse">
<stop stop-color="#45B132"/>
<stop offset="1" stop-color="white"/>
</linearGradient>
<linearGradient id="paint4_linear_323_1466" x1="127.004" y1="52.5972" x2="122.595" y2="111.666" gradientUnits="userSpaceOnUse">
<stop offset="0.140194" stop-color="#45B132"/>
<stop offset="1" stop-color="white"/>
</linearGradient>
<linearGradient id="paint5_linear_323_1466" x1="137.422" y1="66.0084" x2="51.5282" y2="70.0562" gradientUnits="userSpaceOnUse">
<stop offset="0.193643" stop-color="#45B132"/>
<stop offset="0.794347" stop-color="white"/>
</linearGradient>
<linearGradient id="paint6_linear_323_1466" x1="161.158" y1="108.338" x2="114.09" y2="82.8565" gradientUnits="userSpaceOnUse">
<stop offset="0.201632" stop-color="#45B132"/>
<stop offset="1" stop-color="white"/>
</linearGradient>
</defs>
</svg>
